<svg data-v-423bf9ae="" xmlns="http://www.w3.org/2000/svg" viewBox="0 0 18743655 10020279" class="iconLeft"><!----><!----><!----><g data-v-423bf9ae="" id="a410d373-38e8-43d6-b5b8-c95ed0971ede" fill="white" transform="matrix(5.882352828979492,0,0,5.882352828979492,18743248,5010090)"><path d="M5.10 13.45L5.10 13.45L5.10 13.45Q3.08 13.45 1.88 12.04L1.88 12.04L1.88 12.04Q0.69 10.63 0.69 8.46L0.69 8.46L0.69 8.46Q0.69 6.30 2.04 4.79L2.04 4.79L2.04 4.79Q3.40 3.29 5.54 3.29L5.54 3.29L5.54 3.29Q6.93 3.29 7.92 3.98L7.92 3.98L7.92 3.98Q9.86 5.31 9.86 8.13L9.86 8.13L9.86 8.13Q9.86 10.44 8.49 11.95L8.49 11.95L8.49 11.95Q7.13 13.45 5.10 13.45ZM8.27 8.51L8.27 8.51L8.27 8.51Q8.27 6.72 7.60 5.59L7.60 5.59L7.60 5.59Q6.86 4.31 5.11 4.31L5.11 4.31L5.11 4.31Q3.88 4.31 3.18 4.75L3.18 4.75L3.18 4.75Q2.77 5.25 2.52 6.17L2.52 6.17L2.52 6.17Q2.27 7.08 2.27 8.22L2.27 8.22L2.27 8.22Q2.27 9.37 2.56 10.28L2.56 10.28L2.56 10.28Q2.86 11.20 3.62 11.83L3.62 11.83L3.62 11.83Q4.38 12.46 5.50 12.46L5.50 12.46L5.50 12.46Q6.61 12.46 7.34 12.00L7.34 12.00L7.34 12.00Q8.27 10.95 8.27 8.51ZM13.64 7.35L13.64 7.35Q13.17 7.63 12.91 8.32L12.91 8.32L12.91 8.32Q12.64 9.02 12.64 9.97L12.64 9.97L12.64 9.97Q12.64 10.93 13.03 11.65L13.03 11.65L13.03 11.65Q13.41 12.36 14.25 12.36L14.25 12.36L14.25 12.36Q14.81 12.36 15.55 12.10L15.55 12.10L15.55 12.10Q16.30 11.84 16.53 11.66L16.53 11.66L16.88 12.21L16.88 12.21Q15.09 13.44 14.17 13.44L14.17 13.44L14.17 13.44Q12.77 13.44 11.96 12.49L11.96 12.49L11.96 12.49Q11.16 11.54 11.16 10.00L11.16 10.00L11.16 10.00Q11.16 8.46 12.20 7.42L12.20 7.42L12.20 7.42Q13.24 6.38 14.58 6.38L14.58 6.38L14.58 6.38Q15.92 6.38 16.80 6.99L16.80 6.99L16.80 6.99Q16.25 7.85 16.09 8.04L16.09 8.04L16.09 8.04Q15.13 7.31 14.27 7.31L14.27 7.31L14.27 7.31Q13.94 7.31 13.64 7.35L13.64 7.35ZM21.14 13.44L21.14 13.44L21.14 13.44Q19.67 13.44 18.84 12.53L18.84 12.53L18.84 12.53Q18.02 11.62 18.02 10.13L18.02 10.13L18.02 10.13Q18.02 8.64 18.94 7.52L18.94 7.52L18.94 7.52Q19.87 6.40 21.24 6.40L21.24 6.40L21.24 6.40Q23.74 6.40 23.74 9.49L23.74 9.49L23.23 10.00L19.50 10.00L19.50 10.00Q19.50 11.17 20.01 11.76L20.01 11.76L20.01 11.76Q20.51 12.35 21.36 12.35L21.36 12.35L21.36 12.35Q21.70 12.35 22.32 12.14L22.32 12.14L22.32 12.14Q22.93 11.94 23.41 11.66L23.41 11.66L23.76 12.19L23.76 12.19Q23.49 12.46 22.60 12.95L22.60 12.95L22.60 12.95Q21.71 13.44 21.14 13.44ZM20.99 7.10L20.99 7.10L20.99 7.10Q20.40 7.10 20.08 7.36L20.08 7.36L20.08 7.36Q19.81 7.73 19.66 8.29L19.66 8.29L19.66 8.29Q19.50 8.85 19.50 9.27L19.50 9.27L22.37 9.16L22.37 9.16Q22.37 7.10 20.99 7.10ZM28.94 11.80L28.94 10.49L28.94 10.49Q28.36 10.28 27.62 10.28L27.62 10.28L27.62 10.28Q26.87 10.28 26.53 10.51L26.53 10.51L26.53 10.51Q26.32 10.84 26.32 11.38L26.32 11.38L26.32 11.38Q26.32 11.91 26.61 12.22L26.61 12.22L26.61 12.22Q26.91 12.53 27.35 12.53L27.35 12.53L27.35 12.53Q27.79 12.53 28.25 12.30L28.25 12.30L28.25 12.30Q28.71 12.07 28.94 11.80L28.94 11.80ZM29.16 12.50L29.16 12.50L29.16 12.50Q28.31 13.44 27.24 13.44L27.24 13.44L27.24 13.44Q26.17 13.44 25.56 12.98L25.56 12.98L25.56 12.98Q24.95 12.52 24.95 11.49L24.95 11.49L24.95 11.49Q24.95 10.46 25.67 10.01L25.67 10.01L25.67 10.01Q26.39 9.56 27.71 9.56L27.71 9.56L28.94 9.60L28.94 8.81L28.94 8.81Q28.94 8.06 28.57 7.60L28.57 7.60L28.57 7.60Q28.21 7.14 27.47 7.14L27.47 7.14L27.47 7.14Q26.92 7.15 25.72 8.19L25.72 8.19L25.72 8.19Q25.31 7.67 25.14 6.85L25.14 6.85L25.14 6.85Q26.53 6.40 27.69 6.40L27.69 6.40L27.69 6.40Q28.85 6.40 29.55 7.00L29.55 7.00L29.55 7.00Q30.25 7.60 30.25 8.71L30.25 8.71L30.25 11.06L30.25 11.06Q30.27 11.69 30.46 12.23L30.46 12.23L30.46 12.23Q30.65 12.77 30.95 12.98L30.95 12.98L30.98 13.12L29.48 13.48L29.48 13.48Q29.30 13.03 29.16 12.50ZM36.54 6.40L36.54 6.40L36.54 6.40Q37.55 6.40 38.10 7.04L38.10 7.04L38.10 7.04Q38.65 7.69 38.65 8.89L38.65 8.89L38.65 10.91L38.65 10.91Q38.65 12.24 39.07 13.19L39.07 13.19L39.07 13.29L37.10 13.29L37.10 13.19L37.10 13.19Q37.34 12.49 37.34 11.33L37.34 11.33L37.34 9.18L37.34 9.18Q37.34 8.37 37.09 7.96L37.09 7.96L37.09 7.96Q36.85 7.55 36.11 7.55L36.11 7.55L36.11 7.55Q35.36 7.55 34.20 8.26L34.20 8.26L34.20 10.91L34.20 10.91Q34.20 12.26 34.61 13.19L34.61 13.19L34.61 13.29L32.65 13.29L32.65 13.19L32.65 13.19Q32.89 12.49 32.89 11.33L32.89 11.33L32.89 8.95L32.89 8.95Q32.89 8.34 32.64 7.76L32.64 7.76L32.64 7.76Q32.40 7.18 32.07 6.99L32.07 6.99L32.06 6.82L33.89 6.38L33.98 6.52L33.98 6.52Q34.09 7.04 34.15 7.57L34.15 7.57L34.15 7.57Q34.66 7.17 34.95 6.97L34.95 6.97L34.95 6.97Q35.24 6.78 35.69 6.59L35.69 6.59L35.69 6.59Q36.13 6.40 36.54 6.40ZM42.11 8.04L42.11 8.04L42.11 8.04Q42.11 10.05 43.09 11.17L43.09 11.17L43.09 11.17Q44.06 12.29 45.50 12.29L45.50 12.29L45.50 12.29Q46.55 12.29 48.29 11.34L48.29 11.34L48.66 11.91L48.66 11.91Q48.02 12.39 47.66 12.60L47.66 12.60L47.66 12.60Q47.31 12.81 46.86 13.03L46.86 13.03L46.86 13.03Q45.95 13.47 44.91 13.47L44.91 13.47L44.91 13.47Q43.09 13.47 41.81 12.11L41.81 12.11L41.81 12.11Q40.53 10.75 40.53 8.47L40.53 8.47L40.53 8.47Q40.53 6.19 42.01 4.75L42.01 4.75L42.01 4.75Q43.50 3.32 45.70 3.32L45.70 3.32L45.70 3.32Q47.17 3.32 48.45 3.99L48.45 3.99L48.45 3.99Q48.29 4.87 47.87 5.47L47.87 5.47L47.87 5.47Q46.42 4.31 44.74 4.31L44.74 4.31L44.74 4.31Q44.24 4.31 43.76 4.41L43.76 4.41L43.76 4.41Q43.05 4.94 42.58 5.85L42.58 5.85L42.58 5.85Q42.11 6.76 42.11 8.04ZM51.49 3.51L51.49 3.51L53.58 3.49L53.58 3.49Q56.94 3.49 56.94 5.91L56.94 5.91L56.94 5.91Q56.94 7.08 56.16 7.87L56.16 7.87L56.16 7.87Q55.38 8.67 54.10 8.82L54.10 8.82L55.71 10.85L55.71 10.85Q56.71 12.12 57.22 12.59L57.22 12.59L57.22 12.59Q57.72 13.05 58.09 13.15L58.09 13.15L58.09 13.29L55.79 13.29L55.79 13.29Q55.52 12.85 54.95 12.04L54.95 12.04L52.68 8.86L52.28 8.83L52.28 11.03L52.28 11.03Q52.28 12.50 52.49 13.19L52.49 13.19L52.49 13.29L50.57 13.29L50.57 13.19L50.57 13.19Q50.83 12.47 50.83 11.19L50.83 11.19L50.83 5.75L50.83 5.75Q50.83 4.30 50.62 3.58L50.62 3.58L50.62 3.49L50.62 3.49Q50.62 3.49 51.49 3.51ZM53.40 4.20L53.40 4.20L53.40 4.20Q52.72 4.20 52.32 4.26L52.32 4.26L52.32 4.26Q52.28 4.56 52.28 8.15L52.28 8.15L52.28 8.15Q52.78 8.20 53.24 8.20L53.24 8.20L53.24 8.20Q54.42 8.20 54.90 7.66L54.90 7.66L54.90 7.66Q55.38 7.13 55.38 6.07L55.38 6.07L55.38 6.07Q55.38 5.01 54.94 4.61L54.94 4.61L54.94 4.61Q54.49 4.20 53.40 4.20ZM59.01 13.29L59.01 13.15L59.01 13.15Q59.53 9.23 59.53 5.40L59.53 5.40L59.53 5.40Q59.53 4.27 59.46 3.60L59.46 3.60L59.46 3.46L61.40 3.30L61.40 3.30Q61.49 3.85 61.74 4.63L61.74 4.63L61.74 4.63Q62.22 6.15 64.22 11.94L64.22 11.94L64.22 11.94Q65.37 8.46 66.00 6.22L66.00 6.22L66.00 6.22Q66.64 3.99 66.72 3.49L66.72 3.49L68.80 3.28L68.80 3.42L68.80 3.42Q68.78 3.79 68.78 4.77L68.78 4.77L68.78 4.77Q68.78 5.75 68.94 8.40L68.94 8.40L68.94 8.40Q69.10 11.05 69.44 13.19L69.44 13.19L69.44 13.29L67.62 13.29L67.62 13.05L67.62 13.05Q67.65 11.82 67.65 10.72L67.65 10.72L67.65 10.72Q67.65 9.62 67.61 8.69L67.61 8.69L67.61 8.69Q67.56 7.77 67.51 7.08L67.51 7.08L67.51 7.08Q67.45 6.38 67.40 5.91L67.40 5.91L67.40 5.91Q67.34 5.45 67.33 5.19L67.33 5.19L67.33 5.19Q66.92 6.40 66.07 9.09L66.07 9.09L66.07 9.09Q65.21 11.77 64.81 13.27L64.81 13.27L63.28 13.41L63.28 13.41Q63.28 12.77 61.03 6.40L61.03 6.40L61.03 6.40Q60.59 5.17 60.55 5.08L60.55 5.08L60.55 5.08Q60.55 5.10 60.52 5.61L60.52 5.61L60.52 5.61Q60.37 8.48 60.37 10.00L60.37 10.00L60.37 10.00Q60.37 11.52 60.40 13.05L60.40 13.05L60.40 13.29L59.01 13.29Z"></path></g><!----><g data-v-423bf9ae="" id="8c7a8b47-d536-41b2-a1d4-e3262c8b490b" transform="matrix(333.671142578125,0,0,333.671142578125,-1069955.125,-4374235.5)" stroke="none" fill="white"><path d="M28842 32629c-129-989-76-2050-24-3112 116-2336 232-4672-1726-5879-1613-868-3402-1894-4961-3216-1584-1342-2925-2984-3602-5065-6-18-10-35-13-53-325-1448-62-2041 519-2173 567-129 1352 343 2138 814 215 129 430 258 650 379 536 296 985 384 1566 498l161 32c418 83 835 148 1268 215 2371 367 5207 806 6444 3446 2510-1974 5087-1656 7611-1344 984 122 1960 242 2891 217 716-20 1113-256 1642-571 268-160-402 237 111-68 457-271 810-350 1070-291 285 65 453 254 523 531 49 193 39 430-17 689-165 757-770 1833-1468 2455-1849 1649-4308 2353-6718 3043-1255 359-2497 715-3598 1189-2555 1395-1373 3541-234 5608 466 846 926 1680 1165 2483 271-99 542-204 809-308 1510-587 2932-1140 4172-434 715 407 1318 782 1869 1125 1352 840 2377 1477 3686 1728 182 74 379 119 588 130 163 8 452 6 617-15l-2 2c776 8 1671-98 2767-342 511-114 1145-187 1850-220l16-25c61 4 124 6 189 6 137 0 257-1 373-12l-8 13c939-15 1974 35 3005 148 631 70 1262 163 1870 281l15-29c89 35 181 63 273 83l-2 4c1075 224 2066 525 2840 902 187 90 265 315 175 501-90 187-315 265-501 175-1194-581-2967-972-4753-1169-1983-219-3965-196-5181 75-4155 926-5620 16-8213-1596-554-345-1162-722-1843-1110-931-530-2191-40-3531 481-1213 471-1298 628-2689 814-285 39-837 57-1382 55-543-2-1085-23-1361-64-892-132-1772-474-2623-805-1339-521-2600-1011-3531-481-681 388-1289 766-1843 1110-1621 1008-2802 1741-4476 1923-1489 161-2064 46-3736-328-1216-271-3198-294-5181-75-1786 197-3559 589-4753 1169-187 90-411 12-501-175s-12-411 175-501c1275-620 3136-1035 4997-1240 497-55 995-95 1483-119 34 4 68 7 103 8 173 9 346-2 514-37l3 5c1292-33 2474 44 3322 233 3211 716 4649 362 7650-1502 551-342 1155-718 1869-1125 1240-706 2661-153 4172 434 431 167 869 338 1307 479l3 1zm-17475 5554c129-13 223-128 209-257-13-129-128-223-257-209-343 36-708-8-1027-155-268-124-503-324-662-615-62-114-205-155-319-93-44 24-78 61-98 103-176 332-353 561-613 719-273 167-650 269-1218 341-128 16-219 133-203 262 16 128 133 219 262 203 637-81 1070-202 1404-405 246-150 431-339 595-582 474 555 1217 764 1927 690v-2zm39518-265c-129-13-223-128-209-257 13-129 128-223 257-209 343 36 708-8 1027-155 268-124 503-324 662-615 62-114 205-155 319-93 44 24 78 61 98 103 176 332 353 561 613 719 273 167 650 269 1218 341 128 16 219 133 203 262-16 128-133 219-262 203-637-81-1070-202-1404-405-246-150-431-339-595-582-474 555-1217 764-1927 690v-2zm-23432 4921c129-13 223-128 209-257-13-129-128-223-257-209-343 36-708-8-1027-155-268-124-503-324-662-615-62-114-205-155-319-93-44 24-78 61-98 103-176 332-353 561-613 719-273 167-650 269-1218 341-128 16-219 133-203 262 16 128 133 219 262 203 637-81 1070-202 1404-405 246-150 431-339 595-582 474 555 1217 764 1927 690v-2zm12742-370c-129-13-223-128-209-257 13-129 128-223 257-209 343 36 708-8 1027-155 268-124 503-324 662-615 62-114 205-155 319-93 44 24 78 61 98 103 176 332 353 561 613 719 273 167 650 269 1218 341 128 16 219 133 203 262-16 128-133 219-262 203-637-81-1070-202-1404-405-246-150-431-339-595-582-474 555-1217 764-1927 690v-2zm-4710-7568c-129 7-240-92-247-221s92-240 221-247c344-20 697-122 987-319 244-166 443-401 554-715 43-122 177-186 299-143 45 16 82 44 109 80 229 302 442 501 725 616 297 121 685 160 1257 140 129-5 238 97 243 226s-97 238-226 243c-642 23-1089-26-1450-173-267-108-480-265-681-479-378 623-1079 952-1792 992h1zm-5166 1297c-129-13-223-128-209-257 13-129 128-223 257-209 343 36 708-8 1027-155 268-124 503-324 662-615 62-114 205-155 319-93 44 24 78 61 98 103 176 332 353 561 613 719 273 167 650 269 1218 341 128 16 219 133 203 262-16 128-133 219-262 203-637-81-1070-202-1404-405-246-150-431-339-595-582-474 555-1217 764-1927 690v-2zm-6944-963c-129 13-244-81-257-209-13-129 81-244 209-257 343-36 691-154 971-364 236-177 424-421 520-740 38-124 169-195 293-157 53 16 96 49 125 91 237 282 456 466 741 566 301 106 691 128 1263 80 129-10 242 87 253 216 10 129-87 242-216 253-639 53-1087 24-1456-106-271-96-491-242-702-447-347 640-1036 1001-1744 1075v-1zm10153-2542c-214-730-659-1539-1111-2359-836-1518-1692-3072-1384-4453 252-2910 2871-3578 5663-4290 1916-489 3917-999 5200-2291 91-92 240-92 332-1s92 240 1 332c-1375 1385-3440 1912-5417 2416-1934 493-3780 964-4708 2219 240-195 524-384 857-565 10-5 21-10 31-15 1169-506 2432-867 3709-1233 2328-666 4703-1346 6424-2882 587-524 1095-1423 1233-2052 31-140 41-255 26-332-90 3-246 66-486 208-589 349 84-51-111 65-625 372-1094 652-2003 677-1003 28-1999-95-3003-220-2492-308-5040-623-7421 1494l-1-1c-35 31-76 56-123 73-195 70-409-32-479-226-953-2658-3744-3090-6056-3448-467-72-916-142-1297-218l-161-32c-645-127-1144-225-1783-577-209-115-441-255-674-394-657-394-1313-788-1588-726-138 31-156 369 48 1273 629 1924 1884 3454 3369 4713 1509 1279 3261 2282 4841 3133 6 3 12 7 18 10 334 205 618 433 860 680-776-1217-2076-2003-3395-2801-1422-860-2865-1732-3763-3164-69-110-36-254 74-323s254-36 323 74c839 1337 2234 2180 3609 3012 2164 1308 4279 2588 4342 5695 0 20-2 39-6 57 164 1044 107 2188 50 3332-57 1145-114 2290 66 3292 121 26 242 48 362 66 251 37 750 57 1253 58 514 2 1026-15 1282-49 330-45 664-124 999-224l-2-3zm-6849-15235c-119-52-173-191-120-310 52-119 191-173 310-120 504 223 1084 495 1629 905 552 416 1061 972 1404 1755 52 119-3 257-121 309-119 52-257-3-309-121-305-697-761-1194-1257-1568-504-380-1056-637-1535-850h-1zm5750 2756c-108 72-254 42-325-66-72-108-42-254 66-325l24-16c1061-706 2353-1566 4320-1176 127 25 210 148 186 276-25 127-148 210-276 186-1779-352-2983 449-3971 1107l-24 16v-2zm-2035 1165c22-128 143-214 271-192s214 143 192 271c-214 1245-392 2494-411 3787-19 1290 117 2632 530 4074 36 125-37 255-162 290-125 36-255-37-290-162-425-1487-567-2874-547-4208 20-1331 200-2600 417-3860z"></path></g><!----></svg>