<svg data-v-423bf9ae="" xmlns="http://www.w3.org/2000/svg" viewBox="0 0 404.4117722681788 60" class="font"><!----><!----><!----><g data-v-423bf9ae="" id="913036b1-546f-46dc-81bb-6daba6cf3a2b" fill="black" transform="matrix(5.882352828979492,0,0,5.882352828979492,-4.058806896209717,-19.294116973876953)"><path d="M5.10 13.45L5.10 13.45L5.10 13.45Q3.08 13.45 1.88 12.04L1.88 12.04L1.88 12.04Q0.69 10.63 0.69 8.46L0.69 8.46L0.69 8.46Q0.69 6.30 2.04 4.79L2.04 4.79L2.04 4.79Q3.40 3.29 5.54 3.29L5.54 3.29L5.54 3.29Q6.93 3.29 7.92 3.98L7.92 3.98L7.92 3.98Q9.86 5.31 9.86 8.13L9.86 8.13L9.86 8.13Q9.86 10.44 8.49 11.95L8.49 11.95L8.49 11.95Q7.13 13.45 5.10 13.45ZM8.27 8.51L8.27 8.51L8.27 8.51Q8.27 6.72 7.60 5.59L7.60 5.59L7.60 5.59Q6.86 4.31 5.11 4.31L5.11 4.31L5.11 4.31Q3.88 4.31 3.18 4.75L3.18 4.75L3.18 4.75Q2.77 5.25 2.52 6.17L2.52 6.17L2.52 6.17Q2.27 7.08 2.27 8.22L2.27 8.22L2.27 8.22Q2.27 9.37 2.56 10.28L2.56 10.28L2.56 10.28Q2.86 11.20 3.62 11.83L3.62 11.83L3.62 11.83Q4.38 12.46 5.50 12.46L5.50 12.46L5.50 12.46Q6.61 12.46 7.34 12.00L7.34 12.00L7.34 12.00Q8.27 10.95 8.27 8.51ZM13.64 7.35L13.64 7.35Q13.17 7.63 12.91 8.32L12.91 8.32L12.91 8.32Q12.64 9.02 12.64 9.97L12.64 9.97L12.64 9.97Q12.64 10.93 13.03 11.65L13.03 11.65L13.03 11.65Q13.41 12.36 14.25 12.36L14.25 12.36L14.25 12.36Q14.81 12.36 15.55 12.10L15.55 12.10L15.55 12.10Q16.30 11.84 16.53 11.66L16.53 11.66L16.88 12.21L16.88 12.21Q15.09 13.44 14.17 13.44L14.17 13.44L14.17 13.44Q12.77 13.44 11.96 12.49L11.96 12.49L11.96 12.49Q11.16 11.54 11.16 10.00L11.16 10.00L11.16 10.00Q11.16 8.46 12.20 7.42L12.20 7.42L12.20 7.42Q13.24 6.38 14.58 6.38L14.58 6.38L14.58 6.38Q15.92 6.38 16.80 6.99L16.80 6.99L16.80 6.99Q16.25 7.85 16.09 8.04L16.09 8.04L16.09 8.04Q15.13 7.31 14.27 7.31L14.27 7.31L14.27 7.31Q13.94 7.31 13.64 7.35L13.64 7.35ZM21.14 13.44L21.14 13.44L21.14 13.44Q19.67 13.44 18.84 12.53L18.84 12.53L18.84 12.53Q18.02 11.62 18.02 10.13L18.02 10.13L18.02 10.13Q18.02 8.64 18.94 7.52L18.94 7.52L18.94 7.52Q19.87 6.40 21.24 6.40L21.24 6.40L21.24 6.40Q23.74 6.40 23.74 9.49L23.74 9.49L23.23 10.00L19.50 10.00L19.50 10.00Q19.50 11.17 20.01 11.76L20.01 11.76L20.01 11.76Q20.51 12.35 21.36 12.35L21.36 12.35L21.36 12.35Q21.70 12.35 22.32 12.14L22.32 12.14L22.32 12.14Q22.93 11.94 23.41 11.66L23.41 11.66L23.76 12.19L23.76 12.19Q23.49 12.46 22.60 12.95L22.60 12.95L22.60 12.95Q21.71 13.44 21.14 13.44ZM20.99 7.10L20.99 7.10L20.99 7.10Q20.40 7.10 20.08 7.36L20.08 7.36L20.08 7.36Q19.81 7.73 19.66 8.29L19.66 8.29L19.66 8.29Q19.50 8.85 19.50 9.27L19.50 9.27L22.37 9.16L22.37 9.16Q22.37 7.10 20.99 7.10ZM28.94 11.80L28.94 10.49L28.94 10.49Q28.36 10.28 27.62 10.28L27.62 10.28L27.62 10.28Q26.87 10.28 26.53 10.51L26.53 10.51L26.53 10.51Q26.32 10.84 26.32 11.38L26.32 11.38L26.32 11.38Q26.32 11.91 26.61 12.22L26.61 12.22L26.61 12.22Q26.91 12.53 27.35 12.53L27.35 12.53L27.35 12.53Q27.79 12.53 28.25 12.30L28.25 12.30L28.25 12.30Q28.71 12.07 28.94 11.80L28.94 11.80ZM29.16 12.50L29.16 12.50L29.16 12.50Q28.31 13.44 27.24 13.44L27.24 13.44L27.24 13.44Q26.17 13.44 25.56 12.98L25.56 12.98L25.56 12.98Q24.95 12.52 24.95 11.49L24.95 11.49L24.95 11.49Q24.95 10.46 25.67 10.01L25.67 10.01L25.67 10.01Q26.39 9.56 27.71 9.56L27.71 9.56L28.94 9.60L28.94 8.81L28.94 8.81Q28.94 8.06 28.57 7.60L28.57 7.60L28.57 7.60Q28.21 7.14 27.47 7.14L27.47 7.14L27.47 7.14Q26.92 7.15 25.72 8.19L25.72 8.19L25.72 8.19Q25.31 7.67 25.14 6.85L25.14 6.85L25.14 6.85Q26.53 6.40 27.69 6.40L27.69 6.40L27.69 6.40Q28.85 6.40 29.55 7.00L29.55 7.00L29.55 7.00Q30.25 7.60 30.25 8.71L30.25 8.71L30.25 11.06L30.25 11.06Q30.27 11.69 30.46 12.23L30.46 12.23L30.46 12.23Q30.65 12.77 30.95 12.98L30.95 12.98L30.98 13.12L29.48 13.48L29.48 13.48Q29.30 13.03 29.16 12.50ZM36.54 6.40L36.54 6.40L36.54 6.40Q37.55 6.40 38.10 7.04L38.10 7.04L38.10 7.04Q38.65 7.69 38.65 8.89L38.65 8.89L38.65 10.91L38.65 10.91Q38.65 12.24 39.07 13.19L39.07 13.19L39.07 13.29L37.10 13.29L37.10 13.19L37.10 13.19Q37.34 12.49 37.34 11.33L37.34 11.33L37.34 9.18L37.34 9.18Q37.34 8.37 37.09 7.96L37.09 7.96L37.09 7.96Q36.85 7.55 36.11 7.55L36.11 7.55L36.11 7.55Q35.36 7.55 34.20 8.26L34.20 8.26L34.20 10.91L34.20 10.91Q34.20 12.26 34.61 13.19L34.61 13.19L34.61 13.29L32.65 13.29L32.65 13.19L32.65 13.19Q32.89 12.49 32.89 11.33L32.89 11.33L32.89 8.95L32.89 8.95Q32.89 8.34 32.64 7.76L32.64 7.76L32.64 7.76Q32.40 7.18 32.07 6.99L32.07 6.99L32.06 6.82L33.89 6.38L33.98 6.52L33.98 6.52Q34.09 7.04 34.15 7.57L34.15 7.57L34.15 7.57Q34.66 7.17 34.95 6.97L34.95 6.97L34.95 6.97Q35.24 6.78 35.69 6.59L35.69 6.59L35.69 6.59Q36.13 6.40 36.54 6.40ZM42.11 8.04L42.11 8.04L42.11 8.04Q42.11 10.05 43.09 11.17L43.09 11.17L43.09 11.17Q44.06 12.29 45.50 12.29L45.50 12.29L45.50 12.29Q46.55 12.29 48.29 11.34L48.29 11.34L48.66 11.91L48.66 11.91Q48.02 12.39 47.66 12.60L47.66 12.60L47.66 12.60Q47.31 12.81 46.86 13.03L46.86 13.03L46.86 13.03Q45.95 13.47 44.91 13.47L44.91 13.47L44.91 13.47Q43.09 13.47 41.81 12.11L41.81 12.11L41.81 12.11Q40.53 10.75 40.53 8.47L40.53 8.47L40.53 8.47Q40.53 6.19 42.01 4.75L42.01 4.75L42.01 4.75Q43.50 3.32 45.70 3.32L45.70 3.32L45.70 3.32Q47.17 3.32 48.45 3.99L48.45 3.99L48.45 3.99Q48.29 4.87 47.87 5.47L47.87 5.47L47.87 5.47Q46.42 4.31 44.74 4.31L44.74 4.31L44.74 4.31Q44.24 4.31 43.76 4.41L43.76 4.41L43.76 4.41Q43.05 4.94 42.58 5.85L42.58 5.85L42.58 5.85Q42.11 6.76 42.11 8.04ZM51.49 3.51L51.49 3.51L53.58 3.49L53.58 3.49Q56.94 3.49 56.94 5.91L56.94 5.91L56.94 5.91Q56.94 7.08 56.16 7.87L56.16 7.87L56.16 7.87Q55.38 8.67 54.10 8.82L54.10 8.82L55.71 10.85L55.71 10.85Q56.71 12.12 57.22 12.59L57.22 12.59L57.22 12.59Q57.72 13.05 58.09 13.15L58.09 13.15L58.09 13.29L55.79 13.29L55.79 13.29Q55.52 12.85 54.95 12.04L54.95 12.04L52.68 8.86L52.28 8.83L52.28 11.03L52.28 11.03Q52.28 12.50 52.49 13.19L52.49 13.19L52.49 13.29L50.57 13.29L50.57 13.19L50.57 13.19Q50.83 12.47 50.83 11.19L50.83 11.19L50.83 5.75L50.83 5.75Q50.83 4.30 50.62 3.58L50.62 3.58L50.62 3.49L50.62 3.49Q50.62 3.49 51.49 3.51ZM53.40 4.20L53.40 4.20L53.40 4.20Q52.72 4.20 52.32 4.26L52.32 4.26L52.32 4.26Q52.28 4.56 52.28 8.15L52.28 8.15L52.28 8.15Q52.78 8.20 53.24 8.20L53.24 8.20L53.24 8.20Q54.42 8.20 54.90 7.66L54.90 7.66L54.90 7.66Q55.38 7.13 55.38 6.07L55.38 6.07L55.38 6.07Q55.38 5.01 54.94 4.61L54.94 4.61L54.94 4.61Q54.49 4.20 53.40 4.20ZM59.01 13.29L59.01 13.15L59.01 13.15Q59.53 9.23 59.53 5.40L59.53 5.40L59.53 5.40Q59.53 4.27 59.46 3.60L59.46 3.60L59.46 3.46L61.40 3.30L61.40 3.30Q61.49 3.85 61.74 4.63L61.74 4.63L61.74 4.63Q62.22 6.15 64.22 11.94L64.22 11.94L64.22 11.94Q65.37 8.46 66.00 6.22L66.00 6.22L66.00 6.22Q66.64 3.99 66.72 3.49L66.72 3.49L68.80 3.28L68.80 3.42L68.80 3.42Q68.78 3.79 68.78 4.77L68.78 4.77L68.78 4.77Q68.78 5.75 68.94 8.40L68.94 8.40L68.94 8.40Q69.10 11.05 69.44 13.19L69.44 13.19L69.44 13.29L67.62 13.29L67.62 13.05L67.62 13.05Q67.65 11.82 67.65 10.72L67.65 10.72L67.65 10.72Q67.65 9.62 67.61 8.69L67.61 8.69L67.61 8.69Q67.56 7.77 67.51 7.08L67.51 7.08L67.51 7.08Q67.45 6.38 67.40 5.91L67.40 5.91L67.40 5.91Q67.34 5.45 67.33 5.19L67.33 5.19L67.33 5.19Q66.92 6.40 66.07 9.09L66.07 9.09L66.07 9.09Q65.21 11.77 64.81 13.27L64.81 13.27L63.28 13.41L63.28 13.41Q63.28 12.77 61.03 6.40L61.03 6.40L61.03 6.40Q60.59 5.17 60.55 5.08L60.55 5.08L60.55 5.08Q60.55 5.10 60.52 5.61L60.52 5.61L60.52 5.61Q60.37 8.48 60.37 10.00L60.37 10.00L60.37 10.00Q60.37 11.52 60.40 13.05L60.40 13.05L60.40 13.29L59.01 13.29Z"></path></g><!----><!----></svg>